# xmcd
#
# Track frame offsets:
#	150
#	20574
#	37257
#	54314
#	76060
#	94724
#	111626
#	131697
#	146905
#	163589
#	177725
#	200422
#	217517
#	232358
#	254047
#	273752
#
# Disc length: 3804 seconds
#
# Revision: 0
# Processed by: cddbd v1.5.2PL0 Copyright (c) Steve Scherf et al.
# Submitted via: audiograbber 1.83.01
#
DISCID=f10eda10
DTITLE=Don Henley - Cass County (Deluxe Edition)
DYEAR=2015
DGENRE=Country
TTITLE0=Bramble Rose (feat. Mick Jagger and Miranda Lambert)
TTITLE1=The Cost Of Living (feat. Merle Haggard)
TTITLE2=No, Thank You
TTITLE3=Waiting Tables
TTITLE4=Take A Picture Of This
TTITLE5=Too Far Gone
TTITLE6=That Old Flame (feat. Martina McBride)
TTITLE7=The Brand New Tennessee Waltz
TTITLE8=Words Can Break Your Heart
TTITLE9=When I Stop Dreaming (feat. Dolly Parton)
TTITLE10=Praying For Rain
TTITLE11=Too Much Pride
TTITLE12=She Sang Hymns Out Of Tune
TTITLE13=Train In The Distance
TTITLE14=A Younger Man
TTITLE15=Where I Am Now
EXTD=
EXTT0=
EXTT1=
EXTT2=
EXTT3=
EXTT4=
EXTT5=
EXTT6=
EXTT7=
EXTT8=
EXTT9=
EXTT10=
EXTT11=
EXTT12=
EXTT13=
EXTT14=
EXTT15=
PLAYORDER=
